<svg width="55" height="47" viewBox="0 0 55 47" fill="none" xmlns="http://www.w3.org/2000/svg">
<path d="M46.9045 6.04554C47.5244 6.15739 48.0333 6.25105 48.4142 6.32192C48.4557 6.42834 48.5009 6.54558 48.5496 6.67317C48.8218 7.38697 49.2006 8.42367 49.6221 9.70363C50.4665 12.2676 51.476 15.788 52.1473 19.633C52.8203 23.4874 53.1422 27.6053 52.653 31.3856C52.1641 35.1635 50.8807 38.4979 48.4393 40.9394C46.0242 43.3545 42.4377 44.655 38.2006 45.1508C33.979 45.6449 29.2819 45.3191 24.8515 44.6423C20.4314 43.967 16.3388 42.9521 13.3466 42.1038C11.8523 41.6802 10.6369 41.2993 9.79753 41.0253C9.68816 40.9896 9.58519 40.9557 9.48884 40.9238C9.48827 40.8884 9.48767 40.8523 9.48704 40.8153C9.47419 40.0608 9.44853 38.9739 9.39729 37.6379C9.29488 34.9672 9.09 31.2935 8.67966 27.2848C8.26972 23.28 7.65232 18.9165 6.71936 14.8737C5.79185 10.8545 4.52842 7.04238 2.77535 4.21051C2.4663 3.71127 2.45708 3.46065 2.46256 3.39562C2.46262 3.39484 2.46268 3.39396 2.46274 3.39296C2.46419 3.37061 2.46922 3.29259 2.65204 3.14145C3.1544 2.72611 4.35351 2.30404 6.43255 2.06014C10.45 1.58882 16.5095 1.89911 22.9096 2.55473C29.2739 3.20669 35.8505 4.18589 40.8434 5.00375C43.3381 5.41239 45.4335 5.78012 46.9045 6.04554Z" fill="#9B67CE" stroke="black" stroke-width="3"/>
</svg>
