<svg width="259" height="47" viewBox="0 0 259 47" fill="none" xmlns="http://www.w3.org/2000/svg">
<path d="M5.40568 8.72831C5.66985 8.19027 6.57665 7.40817 8.69491 6.59469C10.7202 5.81691 13.5279 5.13041 17.057 4.54167C24.1037 3.36609 33.7761 2.61969 45.2481 2.21184C68.1773 1.39665 98.0922 1.93973 128.118 3.02896C158.136 4.11792 188.234 5.7515 211.519 7.11319C219.666 7.58961 226.993 8.03375 233.194 8.40964C244.671 9.10533 252.291 9.56723 254.113 9.56723C255.065 9.56723 255.672 9.89306 256.127 10.4288C256.634 11.0252 257.038 11.9905 257.273 13.3747C257.744 16.1478 257.439 19.9852 256.758 23.9957C256.083 27.9674 255.067 31.9556 254.216 34.9618C253.791 36.4622 253.409 37.7118 253.134 38.5849C253.092 38.7171 253.053 38.8406 253.016 38.955L5.09802 45.4721C4.8905 44.8745 4.60835 44.0183 4.29535 42.9474C3.64208 40.7121 2.85745 37.5514 2.33469 33.8605C1.28473 26.4472 1.31458 17.0607 5.40568 8.72831Z" fill="#92D050" stroke="black" stroke-width="3"/>
</svg>
