<svg width="207" height="114" viewBox="0 0 207 114" fill="none" xmlns="http://www.w3.org/2000/svg">
<path d="M76.8558 8.89025C87.4535 13.3242 98.4514 9.61597 97.6957 2.08058C100.496 11.2128 123.158 16.5839 130.544 8.89625C138.083 23.6623 168.467 22.3769 176.7 11.424C170.224 25.5728 183.534 42.3271 200.83 38.485C186.49 43.3472 183.854 71.7785 205.016 82.0566C181.132 82.0539 173.997 94.0131 174.252 107.786C160.038 96.5288 138.7 102.831 133.978 111.637C128.058 99.8815 93.9643 104.264 87.539 110.05C85.2238 95.6813 51.6971 92.3212 45.164 103.904C45.9287 89.9405 27.1823 79.3127 11.2207 87.7005C19.0509 78.5044 21.9783 60.4327 1.75003 54.9861C21.8776 54.9884 22.807 38.1828 17.4929 33.8532C30.1673 38.0825 50.1354 27.639 42.8813 15.3528C41.5957 14.3442 40.6212 13.1675 40.0704 11.8353C41.2692 13.017 42.1965 14.1931 42.8813 15.3528C51.5691 22.1692 74.4657 21.3088 76.8558 8.89025Z" fill="#ED1C24"/>
<path d="M40.0704 11.8353C53.97 25.5367 31.3637 38.4817 17.4929 33.8532C22.807 38.1828 21.8776 54.9884 1.75003 54.9861C21.9783 60.4327 19.0509 78.5044 11.2207 87.7005C27.1823 79.3127 45.9287 89.9405 45.164 103.904C51.6971 92.3212 85.2238 95.6813 87.539 110.05C93.9643 104.264 128.058 99.8815 133.978 111.637C138.7 102.831 160.038 96.5288 174.252 107.786C173.997 94.0131 181.132 82.0539 205.016 82.0566C183.854 71.7785 186.49 43.3472 200.83 38.485C183.534 42.3271 170.224 25.5728 176.7 11.424C168.467 22.3769 138.083 23.6623 130.544 8.89625C123.158 16.5839 100.496 11.2128 97.6957 2.08058C98.4514 9.61597 87.4535 13.3242 76.8558 8.89025C74.1121 23.1464 44.3439 22.1708 40.0704 11.8353Z" stroke="black" stroke-width="3.36336" stroke-linecap="round" stroke-linejoin="round"/>
</svg>
