<svg width="207" height="113" viewBox="0 0 207 113" fill="none" xmlns="http://www.w3.org/2000/svg">
<path d="M77.1205 8.57986C87.7183 13.0138 98.7161 9.30558 97.9604 1.77019C100.76 10.9024 123.423 16.2735 130.809 8.58586C138.347 23.3519 168.732 22.0665 176.964 11.1136C170.488 25.2624 183.799 42.0167 201.095 38.1746C186.755 43.0368 184.119 71.4681 205.281 81.7462C181.396 81.7435 174.262 93.7027 174.517 107.476C160.303 96.2184 138.965 102.521 134.242 111.326C128.323 99.5711 94.2291 103.954 87.8038 109.74C85.4885 95.3709 51.9618 92.0108 45.4287 103.594C46.1934 89.6302 27.447 79.0023 11.4854 87.3901C19.3157 78.194 22.243 60.1224 2.0148 54.6758C22.1423 54.678 23.0718 37.8724 17.7576 33.5429C30.4321 37.7721 50.4002 27.3286 43.146 15.0425C41.8605 14.0338 40.886 12.8571 40.3352 11.5249C41.534 12.7066 42.4613 13.8827 43.146 15.0425C51.8339 21.8588 74.7305 20.9984 77.1205 8.57986Z" fill="#92D050" stroke="black" stroke-width="3.36336" stroke-linecap="round" stroke-linejoin="round"/>
</svg>
