<svg width="350" height="170" viewBox="0 0 350 170" fill="none" xmlns="http://www.w3.org/2000/svg">
<path d="M312.998 13.6901L301.522 42.2141L348 49.2282L308.408 73.5437L333.872 85.2338L292.915 97.3915L327.432 127.15L279.718 121.707L296.932 145.087L260.209 139.476V164.727L225.207 145.087L193.648 168L177.008 139.476L144.302 158.18L132.826 141.814L87.4959 164.727V133.865H35.2803L50.7728 113.29L2 108.614L31.8375 85.2338L2 65.6688L50.7728 61.3859L31.8375 35.2H80.0364L98.4144 13.6901L125.94 26.7831L148.318 9.94929L171.844 23.0422L206.846 2L210.289 23.0422L255.618 2L260.209 26.7831L312.998 13.6901Z" fill="#F25E5E" stroke="black" stroke-width="4" stroke-linejoin="round"/>
</svg>
