<svg width="136" height="67" viewBox="0 0 136 67" fill="none" xmlns="http://www.w3.org/2000/svg">
<path d="M112.303 26.0528C107.988 21.3609 104.695 17.7354 101.515 14.3232C100.38 13.0436 99.2441 11.9772 98.2221 10.4844C96.7459 8.56498 94.702 6.43228 95.8375 2.38021C96.973 -1.45858 99.1305 0.247551 100.72 1.31388C102.424 2.16695 104.127 3.8731 105.717 5.36596C113.097 11.9772 120.478 18.8018 127.746 25.6263C129.676 27.5457 131.72 29.2518 133.423 31.811C137.057 36.9294 136.83 42.0478 132.855 45.8866C127.518 51.005 122.068 55.6969 116.617 60.3887C114.346 62.5214 111.962 64.654 109.577 66.1469C108.215 67 106.625 66.7867 105.149 67C104.695 61.0285 106.511 59.7489 108.101 58.2561C112.075 54.204 116.163 50.3652 120.138 46.3131C121.5 44.8203 122.976 43.3274 124.339 39.9151C122.295 39.4886 120.365 38.8488 118.321 38.6355C102.991 37.1427 87.7754 35.6498 72.4459 34.1569C50.1898 32.0243 28.0472 29.8916 5.79114 27.5457C3.97432 27.3324 2.15749 26.0528 0 24.9865C2.04393 19.2283 4.42853 20.5079 6.3589 20.7211C17.2598 21.1477 28.2743 22.0008 39.1753 22.6406C62.6805 24.1334 86.1857 25.6263 109.691 27.1191C110.259 26.9059 110.599 26.6926 112.303 26.0528Z" fill="black"/>
</svg>
