<svg width="136" height="67" viewBox="0 0 136 67" fill="none" xmlns="http://www.w3.org/2000/svg">
<path d="M23.6975 40.9472C28.0124 45.6391 31.3054 49.2646 34.4849 52.6768C35.6204 53.9564 36.7559 55.0228 37.7779 56.5156C39.2541 58.435 41.298 60.5677 40.1625 64.6198C39.027 68.4586 36.8695 66.7524 35.2797 65.6861C33.5765 64.8331 31.8732 63.1269 30.2835 61.634C22.9026 55.0228 15.5218 48.1982 8.25447 41.3737C6.32409 39.4543 4.28016 37.7482 2.57689 35.189C-1.05676 30.0706 -0.829659 24.9522 3.14465 21.1134C8.48157 15.995 13.932 11.3031 19.3825 6.61127C21.6536 4.47861 24.0381 2.34595 26.4227 0.853086C27.7853 1.95124e-05 29.3751 0.213266 30.8512 0C31.3054 5.97146 29.4886 7.25107 27.8989 8.74394C23.9246 12.796 19.8367 16.6348 15.8624 20.6869C14.4998 22.1797 13.0236 23.6726 11.661 27.0849C13.7049 27.5114 15.6353 28.1512 17.6793 28.3645C33.0087 29.8573 48.2246 31.3502 63.5541 32.8431C85.8102 34.9757 107.953 37.1084 130.209 39.4543C132.026 39.6676 133.843 40.9472 136 42.0135C133.956 47.7717 131.571 46.4921 129.641 46.2789C118.74 45.8523 107.726 44.9992 96.8247 44.3594C73.3195 42.8666 49.8143 41.3737 26.3092 39.8809C25.7414 40.0941 25.4008 40.3074 23.6975 40.9472Z" fill="black"/>
</svg>
